<svg width="405px" height="308px" viewBox="0 0 405 308" version="1.1"
  xmlns="http://www.w3.org/2000/svg"
  xmlns:xlink="http://www.w3.org/1999/xlink" type="image/svg+xml">
  <title></title>
  <desc>Created with Sketch.</desc>
  <defs>
    <path d="M195.944735,6.9225 L196.288175,6.39785714 C194.545846,7.2995 192.790487,8.18721429 191.027682,9.0675 L191.027682,9.0675 C189.779572,9.65157143 188.544491,10.2560714 187.327095,10.8930714 L187.327095,10.8930714 C142.687364,32.6420714 93.9068091,47.3840714 93.9068091,47.3840714 L93.9068091,47.3840714 L95.1474738,47.7146429 C40.3869711,62.2189286 0.028603496,112.006143 0.028603496,171.205357 L0.028603496,171.205357 C0.028603496,241.7675 57.3635088,298.970286 128.090706,298.970286 L128.090706,298.970286 C158.925831,298.970286 187.198654,288.079071 209.297936,269.966357 L209.297936,269.966357 L209.278391,270.034143 C251.017033,240.522286 313.87769,242.242929 332.927896,243.549429 L332.927896,243.549429 C334.579944,243.748143 336.248745,243.891143 337.937092,243.962643 L337.937092,243.962643 C338.36709,244.006286 338.605357,244.032286 338.605357,244.032286 L338.605357,244.032286 L338.62211,243.979357 C339.304336,244.000714 339.986562,244.031357 340.673442,244.031357 L340.673442,244.031357 C376.037506,244.031357 404.704958,215.4295 404.704958,180.148429 L404.704958,180.148429 C404.704958,157.899857 393.296986,138.316286 376.007722,126.878143 L376.007722,126.878143 C339.629161,100.114857 319.306645,55.3242857 319.306645,55.3242857 L319.306645,55.3242857 L319.043248,55.7068571 C303.823931,22.828 270.504684,0 231.820701,0 L231.820701,0 C219.134835,0 207.028814,2.46257143 195.944735,6.9225" id="path-1"></path>
    <linearGradient x1="17.3616796%" y1="76.4237169%" x2="78.669687%" y2="31.2351647%" id="linearGradient-3">
      <stop stop-color="#CFEDF9" offset="0%"></stop>
      <stop stop-color="#F2F9FD" offset="100%"></stop>
    </linearGradient>
    <polygon id="path-4" points="0 327 480.501323 327 480.501323 0.737607955 0 0.737607955"></polygon>
    <polygon id="path-6" points="0.633488372 0.0141637613 0.633488372 84.6213525 81.2511628 80.6856573 87.2213953 72.8758203 100.244651 71.7995662 100.244651 65.4147867 92.8734884 63.6539828 92.8734884 33.1486141 114.460465 34.446834 119.367442 18.7059183 92.8734884 0.0141637613"></polygon>
    <polygon id="path-8" points="0.720322581 6.79476923 11.9844839 59.4526154 57.4480645 47.4009231 44.4888065 0.220615385"></polygon>
    <polygon id="path-10" points="0 327 480.501323 327 480.501323 0.737607955 0 0.737607955"></polygon>
    <path d="M195.944735,6.9225 L196.288175,6.39785714 C194.545846,7.2995 192.790487,8.18721429 191.027682,9.0675 L191.027682,9.0675 C189.779572,9.65157143 188.544491,10.2560714 187.327095,10.8930714 L187.327095,10.8930714 C142.687364,32.6420714 93.9068091,47.3840714 93.9068091,47.3840714 L93.9068091,47.3840714 L95.1474738,47.7146429 C40.3869711,62.2189286 0.028603496,112.006143 0.028603496,171.205357 L0.028603496,171.205357 C0.028603496,241.7675 57.3635088,298.970286 128.090706,298.970286 L128.090706,298.970286 C158.925831,298.970286 187.198654,288.079071 209.297936,269.966357 L209.297936,269.966357 L209.278391,270.034143 C251.017033,240.522286 313.87769,242.242929 332.927896,243.549429 L332.927896,243.549429 C334.579944,243.748143 336.248745,243.891143 337.937092,243.962643 L337.937092,243.962643 C338.36709,244.006286 338.605357,244.032286 338.605357,244.032286 L338.605357,244.032286 L338.62211,243.979357 C339.304336,244.000714 339.986562,244.031357 340.673442,244.031357 L340.673442,244.031357 C376.037506,244.031357 404.704958,215.4295 404.704958,180.148429 L404.704958,180.148429 C404.704958,157.899857 393.296986,138.316286 376.007722,126.878143 L376.007722,126.878143 C339.629161,100.114857 319.306645,55.3242857 319.306645,55.3242857 L319.306645,55.3242857 L319.043248,55.7068571 C303.823931,22.828 270.504684,0 231.820701,0 L231.820701,0 C219.134835,0 207.028814,2.46257143 195.944735,6.9225" id="path-12"></path>
    <path d="M195.944735,6.9225 L196.288175,6.39785714 C194.545846,7.2995 192.790487,8.18721429 191.027682,9.0675 L191.027682,9.0675 C189.779572,9.65157143 188.544491,10.2560714 187.327095,10.8930714 L187.327095,10.8930714 C142.687364,32.6420714 93.9068091,47.3840714 93.9068091,47.3840714 L93.9068091,47.3840714 L95.1474738,47.7146429 C40.3869711,62.2189286 0.028603496,112.006143 0.028603496,171.205357 L0.028603496,171.205357 C0.028603496,241.7675 57.3635088,298.970286 128.090706,298.970286 L128.090706,298.970286 C158.925831,298.970286 187.198654,288.079071 209.297936,269.966357 L209.297936,269.966357 L209.278391,270.034143 C251.017033,240.522286 313.87769,242.242929 332.927896,243.549429 L332.927896,243.549429 C334.579944,243.748143 336.248745,243.891143 337.937092,243.962643 L337.937092,243.962643 C338.36709,244.006286 338.605357,244.032286 338.605357,244.032286 L338.605357,244.032286 L338.62211,243.979357 C339.304336,244.000714 339.986562,244.033214 340.673442,244.031357 L340.673442,244.031357 C374.73262,243.902286 405.078181,217.852143 404.704958,180.148429 L404.704958,180.148429 C404.188402,128.109429 404.779417,62.2142857 404.779417,62.2142857 L404.779417,62.2142857 L319.306645,55.3242857 C319.306645,55.3242857 270.504684,0 231.820701,0 L231.820701,0 C219.134835,0 207.028814,2.46257143 195.944735,6.9225" id="path-14"></path>
    <path d="M195.944735,6.9225 L196.288175,6.39785714 C194.545846,7.2995 192.790487,8.18721429 191.027682,9.0675 L191.027682,9.0675 C189.779572,9.65157143 188.544491,10.2560714 187.327095,10.8930714 L187.327095,10.8930714 C142.687364,32.6420714 93.9068091,47.3840714 93.9068091,47.3840714 L93.9068091,47.3840714 L95.1474738,47.7146429 C40.3869711,62.2189286 0.028603496,112.006143 0.028603496,171.205357 L0.028603496,171.205357 C0.028603496,241.7675 57.3635088,298.970286 128.090706,298.970286 L128.090706,298.970286 C158.925831,298.970286 187.198654,288.079071 209.297936,269.966357 L209.297936,269.966357 L209.278391,270.034143 C251.017033,240.522286 313.87769,242.242929 332.927896,243.549429 L332.927896,243.549429 C334.579944,243.748143 336.248745,243.891143 337.937092,243.962643 L337.937092,243.962643 C338.36709,244.006286 338.605357,244.032286 338.605357,244.032286 L338.605357,244.032286 L338.62211,243.979357 C339.304336,244.000714 339.986562,244.031357 340.673442,244.031357 L340.673442,244.031357 C376.037506,244.031357 404.704958,215.4295 404.704958,180.148429 L404.704958,180.148429 C404.704958,157.899857 393.296986,138.316286 376.007722,126.878143 L376.007722,126.878143 C339.629161,100.114857 319.306645,55.3242857 319.306645,55.3242857 L319.306645,55.3242857 L319.043248,55.7068571 C303.823931,22.828 270.504684,0 231.820701,0 L231.820701,0 C219.134835,0 207.028814,2.46257143 195.944735,6.9225" id="path-16"></path>
    <path d="M195.944735,6.9225 L196.288175,6.39785714 C194.545846,7.2995 192.790487,8.18721429 191.027682,9.0675 L191.027682,9.0675 C189.779572,9.65157143 188.544491,10.2560714 187.327095,10.8930714 L187.327095,10.8930714 C142.687364,32.6420714 93.9068091,47.3840714 93.9068091,47.3840714 L93.9068091,47.3840714 L95.1474738,47.7146429 C40.3869711,62.2189286 0.028603496,112.006143 0.028603496,171.205357 L0.028603496,171.205357 C0.028603496,241.7675 57.3635088,298.970286 128.090706,298.970286 L128.090706,298.970286 C158.925831,298.970286 187.198654,288.079071 209.297936,269.966357 L209.297936,269.966357 L209.278391,270.034143 C251.017033,240.522286 313.87769,242.242929 332.927896,243.549429 L332.927896,243.549429 C334.579944,243.748143 336.248745,243.891143 337.937092,243.962643 L337.937092,243.962643 C338.36709,244.006286 338.605357,244.032286 338.605357,244.032286 L338.605357,244.032286 L338.62211,243.979357 C339.304336,244.000714 339.986562,244.031357 340.673442,244.031357 L340.673442,244.031357 C376.037506,244.031357 405.078181,216.338571 404.704958,180.148429 L404.704958,180.148429 C404.475068,157.900786 393.296986,138.316286 376.007722,126.878143 L376.007722,126.878143 C339.629161,100.114857 319.306645,55.3242857 319.306645,55.3242857 L319.306645,55.3242857 L319.043248,55.7068571 C303.823931,22.828 270.504684,0 231.820701,0 L231.820701,0 C219.134835,0 207.028814,2.46257143 195.944735,6.9225 L195.944735,6.9225 Z" id="path-18"></path>
    <path d="M196.288175,6.39785714 C194.545846,7.2995 192.790487,8.18721429 191.027682,9.0675 C189.779572,9.65157143 188.544491,10.2560714 187.327095,10.8930714 C142.687364,32.6420714 93.9068091,47.3840714 93.9068091,47.3840714 L95.1474738,47.7146429 C40.3869711,62.2189286 0.028603496,112.006143 0.028603496,171.205357 C0.028603496,241.7675 57.3635088,298.970286 128.090706,298.970286 C158.925831,298.970286 187.198654,288.079071 209.297936,269.966357 L209.278391,270.034143 C251.017033,240.522286 313.87769,242.242929 332.927896,243.549429 C334.579944,243.748143 336.248745,243.891143 337.937092,243.962643 C338.36709,244.006286 338.605357,244.032286 338.605357,244.032286 L338.62211,243.979357 C339.304336,244.000714 339.986562,244.031357 340.673442,244.031357 C376.037506,244.031357 405.078181,216.338571 404.704958,180.148429 C404.475068,157.900786 393.296986,138.316286 376.007722,126.878143 C339.629161,100.114857 319.306645,55.3242857 319.306645,55.3242857 L319.043248,55.7068571 C303.823931,22.828 270.504684,0 231.820701,0 C219.134835,0 207.028814,2.46257143 195.944735,6.9225 L196.288175,6.39785714 Z" id="path-20"></path>
  </defs>
  <g id="Why-Contentful---DONE" stroke="none" stroke-width="1" fill="none" fill-rule="evenodd">
    <g id="Why-CF-Copy-3" transform="translate(-893.000000, -246.000000)">
      <g id="Group-246" transform="translate(840.000000, 245.000000)">
        <g id="Group-3" transform="translate(53.000000, 10.000000)">
          <mask id="mask-2" fill="white">
            <use xlink:href="#path-1"></use>
          </mask>
          <g id="Clip-2"></g>
          <path d="M195.944735,6.9225 L196.288175,6.39785714 C194.545846,7.2995 192.790487,8.18721429 191.027682,9.0675 L191.027682,9.0675 C189.779572,9.65157143 188.544491,10.2560714 187.327095,10.8930714 L187.327095,10.8930714 C142.687364,32.6420714 93.9068091,47.3840714 93.9068091,47.3840714 L93.9068091,47.3840714 L95.1474738,47.7146429 C40.3869711,62.2189286 0.028603496,112.006143 0.028603496,171.205357 L0.028603496,171.205357 C0.028603496,241.7675 57.3635088,298.970286 128.090706,298.970286 L128.090706,298.970286 C158.925831,298.970286 187.198654,288.079071 209.297936,269.966357 L209.297936,269.966357 L209.278391,270.034143 C251.017033,240.522286 313.87769,242.242929 332.927896,243.549429 L332.927896,243.549429 C334.579944,243.748143 336.248745,243.891143 337.937092,243.962643 L337.937092,243.962643 C338.36709,244.006286 338.605357,244.032286 338.605357,244.032286 L338.605357,244.032286 L338.62211,243.979357 C339.304336,244.000714 339.986562,244.031357 340.673442,244.031357 L340.673442,244.031357 C376.037506,244.031357 404.704958,215.4295 404.704958,180.148429 L404.704958,180.148429 C404.704958,157.899857 393.296986,138.316286 376.007722,126.878143 L376.007722,126.878143 C339.629161,100.114857 319.306645,55.3242857 319.306645,55.3242857 L319.306645,55.3242857 L319.043248,55.7068571 C303.823931,22.828 270.504684,0 231.820701,0 L231.820701,0 C219.134835,0 207.028814,2.46257143 195.944735,6.9225" id="Fill-1" fill="url(#linearGradient-3)" mask="url(#mask-2)"></path>
        </g>
        <g id="Group-146">
          <path d="M86.4725426,195.284772 C86.8986509,194.676291 88.843119,194.188578 90.8201499,194.188578 L212.669452,194.188578 C214.645552,194.188578 216.58909,194.676291 217.016129,195.284772 L239.301221,225.722712 C239.961782,226.664695 238.56251,230.964931 236.165883,230.964931 L67.3227882,230.964931 C64.9261615,230.964931 63.5268888,226.664695 64.1883801,225.722712 L86.4725426,195.284772 Z" id="Fill-4" fill="#B4C3CA"></path>
          <path d="M86.4725426,195.284772 C86.8986509,194.676291 88.843119,194.188578 90.8201499,194.188578 L212.669452,194.188578 C214.645552,194.188578 216.58909,194.676291 217.016129,195.284772 L239.301221,225.722712 C239.961782,226.664695 238.56251,227.440391 236.165883,227.440391 L67.3227882,227.440391 C64.9261615,227.440391 63.5268888,226.664695 64.1883801,225.722712 L86.4725426,195.284772 Z" id="Fill-6" fill="#FFFFFF"></path>
          <path d="M131.496375,224.318098 L133.957197,218.063294 C134.044652,217.84034 134.260497,217.693561 134.500532,217.693561 L169.014375,217.693561 C169.25441,217.693561 169.470256,217.841269 169.55771,218.065152 L171.992482,224.319027 C172.081797,224.548485 171.91247,224.795593 171.666853,224.795593 L131.822004,224.795593 C131.575457,224.795593 131.40613,224.547556 131.496375,224.318098" id="Fill-8" fill="#EDECEB"></path>
          <path d="M80.7840896,216.077977 L222.70514,216.077977 C223.26336,216.077977 223.628064,215.477858 223.351745,215.013369 L213.050716,197.652642 C212.621817,196.930826 211.838447,196.49142 210.979718,196.49142 L92.5095112,196.49142 C91.6498516,196.49142 90.8664822,196.930826 90.4385132,197.652642 L80.1365538,215.013369 C79.861165,215.477858 80.2258691,216.077977 80.7840896,216.077977" id="Fill-10" fill="#EDECEB"></path>
          <path d="M92.509046,196.552175 C91.6661331,196.552175 90.911605,196.975789 90.4910789,197.684599 L80.1900499,215.043468 C80.0746843,215.236695 80.0765451,215.472655 80.192841,215.675172 C80.3165799,215.888837 80.537077,216.017036 80.7836244,216.017036 L222.704675,216.017036 C222.951222,216.017036 223.171719,215.888837 223.296388,215.675172 C223.412684,215.472655 223.413615,215.236695 223.299179,215.043468 L212.99722,197.684599 C212.577624,196.975789 211.823096,196.552175 210.980183,196.552175 L92.509046,196.552175 Z M80.0849184,215.735556 C79.9462936,215.49588 79.9453632,215.213471 80.083988,214.982155 L90.385017,197.621428 C90.8269416,196.876388 91.6214754,196.430479 92.509046,196.430479 L210.980183,196.430479 C211.866824,196.430479 212.661357,196.876388 213.104212,197.621428 L223.405241,214.982155 C223.542936,215.213471 223.542005,215.49588 223.403381,215.735556 C223.257313,215.988238 222.99681,216.139661 222.704675,216.139661 L80.7836244,216.139661 C80.4924193,216.139661 80.2319164,215.988238 80.0849184,215.735556 L80.0849184,215.735556 Z" id="Fill-12" fill="#EDECEB"></path>
          <path d="M205.496969,199.764579 L211.292229,199.764579 C211.778811,199.764579 212.082111,199.235991 211.840215,198.812377 L211.22059,197.725474 C211.108016,197.527601 210.899614,197.405905 210.672604,197.405905 L204.951774,197.405905 C204.481008,197.405905 204.175848,197.905695 204.387971,198.329309 L204.934097,199.416212 C205.041089,199.629877 205.258795,199.764579 205.496969,199.764579" id="Fill-14" fill="#9DC5F5"></path>
          <path d="M202.71945,203.13305 L213.053973,203.13305 C213.540555,203.13305 213.845715,202.6249 213.602889,202.218008 L212.908835,201.050283 C212.796261,200.860772 212.585998,200.743721 212.359918,200.743721 L202.157508,200.743721 C201.693255,200.743721 201.387164,201.208209 201.582541,201.612314 L202.145414,202.780039 C202.249615,202.995562 202.472903,203.13305 202.71945,203.13305" id="Fill-16" fill="#9DC5F5"></path>
          <path d="M202.4342,206.741941 L215.4733,206.741941 C215.964534,206.741941 216.271556,206.233791 216.026869,205.826899 L215.24443,204.523543 C215.129995,204.334032 214.918801,204.216981 214.689931,204.216981 L201.8276,204.216981 C201.364277,204.216981 201.055395,204.67218 201.243329,205.077214 L201.849929,206.37964 C201.952269,206.600737 202.18207,206.741941 202.4342,206.741941" id="Fill-18" fill="#9DC5F5"></path>
          <path d="M208.928537,210.47773 L217.786566,210.47773 C218.281521,210.47773 218.590403,209.96958 218.343856,209.562688 L217.46838,208.114412 C217.353945,207.924901 217.139961,207.80785 216.91016,207.80785 L208.187964,207.80785 C207.711616,207.80785 207.400874,208.280699 207.608345,208.685733 L208.348918,210.134009 C208.456841,210.343958 208.681059,210.47773 208.928537,210.47773" id="Fill-20" fill="#9DC5F5"></path>
          <path d="M213.270562,214.912203 L220.081783,214.912203 C220.576738,214.912203 220.88655,214.403124 220.640003,213.996232 L219.358887,211.879093 C219.244452,211.689581 219.031398,211.57253 218.800667,211.57253 L212.142957,211.57253 C211.662887,211.57253 211.352144,212.05374 211.56892,212.459703 L212.696525,214.576843 C212.805378,214.782147 213.027736,214.912203 213.270562,214.912203" id="Fill-22" fill="#9DC5F5"></path>
          <path d="M203.633443,214.912203 L210.491182,214.912203 C210.968461,214.912203 211.280134,214.435638 211.06801,214.029675 L209.965525,211.912536 C209.856672,211.704445 209.633383,211.57253 209.389627,211.57253 L202.684468,211.57253 C202.223006,211.57253 201.911333,212.020297 202.092755,212.423473 L203.040799,214.540612 C203.14314,214.765425 203.375732,214.912203 203.633443,214.912203" id="Fill-24" fill="#9DC5F5"></path>
          <path d="M193.949062,214.912203 L200.846807,214.912203 C201.305478,214.912203 201.616221,214.469081 201.441311,214.066834 L200.518387,211.950624 C200.417907,211.721166 200.183455,211.57253 199.923882,211.57253 L193.179648,211.57253 C192.736793,211.57253 192.42605,211.986854 192.571188,212.383527 L193.341532,214.500666 C193.429917,214.745916 193.674603,214.912203 193.949062,214.912203" id="Fill-26" fill="#9DC5F5"></path>
          <path d="M121.872003,214.912203 L131.23243,214.912203 C131.546894,214.912203 131.815771,214.695752 131.866941,214.400337 L132.235366,212.284127 C132.299562,211.911607 131.997192,211.57253 131.599925,211.57253 L122.437666,211.57253 C122.14367,211.57253 121.886889,211.762041 121.81432,212.033303 L121.247726,214.150442 C121.144455,214.536897 121.452407,214.912203 121.872003,214.912203" id="Fill-28" fill="#9DC5F5"></path>
          <path d="M112.237582,214.912203 L119.179054,214.912203 C119.470259,214.912203 119.72611,214.725479 119.800539,214.457934 L120.392253,212.339865 C120.500176,211.952482 120.192224,211.57253 119.769837,211.57253 L112.982806,211.57253 C112.705557,211.57253 112.459009,211.740675 112.372485,211.989641 L111.627261,214.10678 C111.487706,214.503453 111.797518,214.912203 112.237582,214.912203" id="Fill-30" fill="#9DC5F5"></path>
          <path d="M92.9879062,214.912203 L99.8558791,214.912203 C100.113591,214.912203 100.346183,214.765425 100.448523,214.540612 L101.396568,212.423473 C101.577059,212.020297 101.265386,211.57253 100.803924,211.57253 L94.0903917,211.57253 C93.845705,211.57253 93.6224168,211.704445 93.5126335,211.912536 L92.4110783,214.029675 C92.1989545,214.435638 92.5096973,214.912203 92.9879062,214.912203" id="Fill-32" fill="#9DC5F5"></path>
          <path d="M102.604092,214.922143 L109.501836,214.922143 C109.776295,214.922143 110.020981,214.756786 110.110297,214.510607 L110.286136,214.028467 C110.430343,213.630865 110.1196,213.21747 109.678606,213.21747 L102.815285,213.21747 C102.553852,213.21747 102.319399,213.366107 102.21985,213.594635 L102.009587,214.076774 C101.833747,214.479021 102.145421,214.922143 102.604092,214.922143" id="Fill-34" fill="#9DC5F5"></path>
          <path d="M83.3843737,214.922143 L90.1965246,214.922143 C90.4393505,214.922143 90.6607779,214.792087 90.7705613,214.586783 L91.0282731,214.104643 C91.2441184,213.69868 90.9324453,213.21747 90.453306,213.21747 L83.6755787,213.21747 C83.4457779,213.21747 83.2327238,213.334521 83.1182886,213.524033 L82.8261532,214.007101 C82.5796058,214.413993 82.8894182,214.922143 83.3843737,214.922143" id="Fill-36" fill="#9DC5F5"></path>
          <path d="M181.904338,214.912203 L191.258253,214.912203 C191.697386,214.912203 192.008129,214.503453 191.868574,214.10678 L191.12335,211.989641 C191.035895,211.740675 190.790278,211.57253 190.513029,211.57253 L181.357282,211.57253 C180.939547,211.57253 180.632526,211.94505 180.732075,212.329647 L181.279131,214.445857 C181.348909,214.719905 181.607551,214.912203 181.904338,214.912203" id="Fill-38" fill="#9DC5F5"></path>
          <path d="M133.873185,214.912203 L179.248139,214.912203 C179.664013,214.912203 179.970104,214.544328 179.875207,214.160661 L179.35327,212.044451 C179.285354,211.767615 179.025781,211.57253 178.727133,211.57253 L134.216491,211.57253 C133.898305,211.57253 133.628499,211.793627 133.58105,212.090899 L133.236814,214.20711 C133.17727,214.577772 133.478709,214.912203 133.873185,214.912203" id="Fill-40" fill="#9DC5F5"></path>
          <path d="M197.076399,199.764579 L202.917246,199.764579 C203.385221,199.764579 203.690382,199.269434 203.48384,198.846749 L202.949809,197.760775 C202.843747,197.542465 202.625111,197.405905 202.384146,197.405905 L196.617728,197.405905 C196.165569,197.405905 195.858548,197.872252 196.036248,198.291221 L196.49492,199.378124 C196.594469,199.612226 196.823339,199.764579 197.076399,199.764579" id="Fill-42" fill="#9DC5F5"></path>
          <path d="M188.649503,199.764579 L194.530356,199.764579 C194.980653,199.764579 195.285814,199.303806 195.113696,198.885766 L194.66712,197.798863 C194.568501,197.561045 194.3387,197.405905 194.083779,197.405905 L188.277356,197.405905 C187.843804,197.405905 187.539574,197.836951 187.68006,198.250346 L188.052207,199.33632 C188.140591,199.592718 188.380626,199.764579 188.649503,199.764579" id="Fill-44" fill="#9DC5F5"></path>
          <path d="M180.343368,199.764579 L186.255853,199.764579 C186.687544,199.764579 186.991774,199.338178 186.85501,198.926641 L186.493097,197.839738 C186.407503,197.580553 186.165607,197.405905 185.89487,197.405905 L180.055884,197.405905 C179.64094,197.405905 179.339501,197.802579 179.445563,198.205755 L179.733977,199.292658 C179.807476,199.571351 180.056814,199.764579 180.343368,199.764579" id="Fill-46" fill="#9DC5F5"></path>
          <path d="M171.925588,199.764579 L177.864124,199.764579 C178.276277,199.764579 178.576786,199.373479 178.475376,198.971232 L178.199987,197.885258 C178.129279,197.602849 177.877149,197.405905 177.588735,197.405905 L171.724629,197.405905 C171.329223,197.405905 171.031505,197.768207 171.104074,198.158377 L171.305033,199.244351 C171.360855,199.547198 171.621358,199.764579 171.925588,199.764579" id="Fill-48" fill="#9DC5F5"></path>
          <path d="M163.543163,199.764579 L169.499376,199.764579 C169.891991,199.764579 170.189709,199.407851 170.120862,199.01861 L169.931997,197.931707 C169.879896,197.627931 169.616602,197.405905 169.310511,197.405905 L163.428728,197.405905 C163.05379,197.405905 162.760724,197.732905 162.80073,198.11007 L162.915165,199.196045 C162.949589,199.519329 163.220326,199.764579 163.543163,199.764579" id="Fill-50" fill="#9DC5F5"></path>
          <path d="M155.140828,199.764579 L161.107275,199.764579 C161.479422,199.764579 161.771557,199.441295 161.736203,199.068775 L161.633863,197.981871 C161.602231,197.654871 161.329633,197.405905 161.004935,197.405905 L155.112917,197.405905 C154.757517,197.405905 154.471894,197.70132 154.481198,198.058976 L154.510039,199.14588 C154.519343,199.49053 154.799383,199.764579 155.140828,199.764579" id="Fill-52" fill="#9DC5F5"></path>
          <path d="M146.732911,199.764579 L152.701219,199.764579 C153.053828,199.764579 153.33852,199.474738 153.332938,199.118939 L153.316191,198.032965 C153.310609,197.685528 153.030569,197.405905 152.684472,197.405905 L146.790594,197.405905 C146.455662,197.405905 146.178412,197.670664 146.160735,198.007883 L146.103052,199.093857 C146.083515,199.458945 146.370998,199.764579 146.732911,199.764579" id="Fill-54" fill="#9DC5F5"></path>
          <path d="M138.445942,199.764579 L144.408667,199.764579 C144.742669,199.764579 145.017127,199.504465 145.038526,199.169104 L145.107373,198.082201 C145.131562,197.716184 144.842218,197.405905 144.477514,197.405905 L138.589218,197.405905 C138.272893,197.405905 138.004947,197.642795 137.963081,197.958647 L137.820735,199.04555 C137.769564,199.426431 138.064491,199.764579 138.445942,199.764579" id="Fill-56" fill="#9DC5F5"></path>
          <path d="M130.048072,199.764579 L135.997773,199.764579 C136.310376,199.764579 136.577391,199.532334 136.621119,199.219269 L136.77649,198.132366 C136.832312,197.749627 136.537386,197.405905 136.153144,197.405905 L130.277873,197.405905 C129.980156,197.405905 129.722444,197.615854 129.660109,197.909411 L129.431239,198.996314 C129.347506,199.392059 129.646154,199.764579 130.048072,199.764579" id="Fill-58" fill="#9DC5F5"></path>
          <path d="M121.521254,199.764579 L127.447695,199.764579 C127.742622,199.764579 127.998473,199.558346 128.063598,199.268505 L128.306424,198.18253 C128.39574,197.783999 128.095231,197.405905 127.691451,197.405905 L121.838509,197.405905 C121.558469,197.405905 121.311921,197.591701 121.23284,197.862033 L120.915585,198.948937 C120.796498,199.356758 121.099798,199.764579 121.521254,199.764579" id="Fill-60" fill="#9DC5F5"></path>
          <path d="M113.24517,199.764579 L119.1437,199.764579 C119.42188,199.764579 119.666567,199.582499 119.747509,199.314025 L120.075928,198.22805 C120.199667,197.818371 119.895437,197.405905 119.471189,197.405905 L113.648019,197.405905 C113.383795,197.405905 113.148412,197.571263 113.056305,197.8193 L112.653456,198.906204 C112.499946,199.321457 112.804176,199.764579 113.24517,199.764579" id="Fill-62" fill="#9DC5F5"></path>
          <path d="M194.046285,203.13305 L200.119724,203.13305 C200.579326,203.13305 200.886347,202.674136 200.695622,202.268172 L200.146705,201.101377 C200.043434,200.883996 199.819216,200.743721 199.569877,200.743721 L193.581102,200.743721 C193.136386,200.743721 192.830295,201.174766 192.990318,201.574226 L193.455502,202.741951 C193.550399,202.976982 193.784852,203.13305 194.046285,203.13305" id="Fill-64" fill="#9DC5F5"></path>
          <path d="M185.372283,203.13305 L191.481076,203.13305 C191.923001,203.13305 192.229091,202.70665 192.07372,202.307189 L191.622492,201.140394 C191.529455,200.902576 191.293142,200.743721 191.028917,200.743721 L185.003857,200.743721 C184.577749,200.743721 184.273519,201.140394 184.398188,201.533351 L184.767544,202.700147 C184.849416,202.957474 185.094103,203.13305 185.372283,203.13305" id="Fill-66" fill="#9DC5F5"></path>
          <path d="M176.821833,203.13305 L182.960398,203.13305 C183.382785,203.13305 183.687015,202.740093 183.566998,202.348064 L183.209737,201.181269 C183.130656,200.922084 182.884108,200.743721 182.603137,200.743721 L176.548305,200.743721 C176.143596,200.743721 175.842156,201.106951 175.931472,201.489689 L176.205,202.656485 C176.270126,202.935178 176.526907,203.13305 176.821833,203.13305" id="Fill-68" fill="#9DC5F5"></path>
          <path d="M168.156856,203.13305 L174.316819,203.13305 C174.720598,203.13305 175.020177,202.773536 174.935513,202.393584 L174.675941,201.22586 C174.612676,200.945309 174.354964,200.743721 174.057246,200.743721 L167.981016,200.743721 C167.594914,200.743721 167.299057,201.074437 167.354879,201.443241 L167.530718,202.610965 C167.576306,202.911025 167.843322,203.13305 168.156856,203.13305" id="Fill-70" fill="#9DC5F5"></path>
          <path d="M159.528255,203.13305 L165.702174,203.13305 C166.085485,203.13305 166.380412,202.80605 166.330172,202.440033 L166.166427,201.273238 C166.123631,200.969462 165.855685,200.743721 165.53936,200.743721 L159.448244,200.743721 C159.082609,200.743721 158.793265,201.042851 158.816524,201.394934 L158.897466,202.562658 C158.919795,202.883155 159.196114,203.13305 159.528255,203.13305" id="Fill-72" fill="#9DC5F5"></path>
          <path d="M150.879652,203.13305 L157.059153,203.13305 C157.421996,203.13305 157.711341,202.838564 157.690873,202.48834 L157.623886,201.321545 C157.605279,200.997332 157.32896,200.743721 156.992167,200.743721 L150.896399,200.743721 C150.550302,200.743721 150.268401,201.012195 150.262818,201.346627 L150.246072,202.513422 C150.24142,202.854357 150.526112,203.13305 150.879652,203.13305" id="Fill-74" fill="#9DC5F5"></path>
          <path d="M142.224629,203.13305 L148.402269,203.13305 C148.745575,203.13305 149.026546,202.868292 149.034919,202.536647 L149.065621,201.37078 C149.073995,201.02613 148.788372,200.743721 148.432972,200.743721 L142.338134,200.743721 C142.011575,200.743721 141.738977,200.984326 141.707345,201.297391 L141.59384,202.464187 C141.559416,202.822772 141.851552,203.13305 142.224629,203.13305" id="Fill-76" fill="#9DC5F5"></path>
          <path d="M133.693252,203.13305 L139.861589,203.13305 C140.186287,203.13305 140.457954,202.896161 140.491448,202.584954 L140.616117,201.418158 C140.655192,201.057715 140.363057,200.743721 139.987188,200.743721 L133.902585,200.743721 C133.594633,200.743721 133.331339,200.957386 133.279239,201.250942 L133.069906,202.416809 C133.00292,202.791187 133.300637,203.13305 133.693252,203.13305" id="Fill-78" fill="#9DC5F5"></path>
          <path d="M125.048277,203.13305 L131.198007,203.13305 C131.503167,203.13305 131.765531,202.922172 131.820422,202.632332 L132.043711,201.465536 C132.115349,201.090229 131.815771,200.743721 131.421295,200.743721 L125.354368,200.743721 C125.065024,200.743721 124.811964,200.934161 124.741256,201.205422 L124.435165,202.372218 C124.333755,202.758672 124.636125,203.13305 125.048277,203.13305" id="Fill-80" fill="#9DC5F5"></path>
          <path d="M116.269795,203.13305 L122.394404,203.13305 C122.681888,203.13305 122.932156,202.946326 123.005656,202.67878 L123.326632,201.511985 C123.433625,201.123672 123.130325,200.743721 122.715381,200.743721 L116.674505,200.743721 C116.401907,200.743721 116.160011,200.910937 116.073487,201.160832 L115.669708,202.328556 C115.532944,202.7243 115.837174,203.13305 116.269795,203.13305" id="Fill-82" fill="#9DC5F5"></path>
          <path d="M107.264116,202.057109 C107.011056,202.648867 107.345989,203.132864 108.009341,203.132864 L113.088217,203.132864 C113.751569,203.132864 114.469813,202.63772 114.686588,202.032955 L114.753575,201.844373 C114.96942,201.23868 114.603786,200.743535 113.941364,200.743535 L109.031815,200.743535 C108.368463,200.743535 107.619517,201.227532 107.365526,201.819291 L107.264116,202.057109 Z" id="Fill-84" fill="#9DC5F5"></path>
          <path d="M99.0425518,203.13305 L105.095523,203.13305 C105.349513,203.13305 105.578384,202.987201 105.677933,202.761459 L106.192426,201.594664 C106.370126,201.190559 106.063105,200.743721 105.610016,200.743721 L99.6407781,200.743721 C99.399813,200.743721 99.1793159,200.875636 99.073254,201.083726 L98.475958,202.251451 C98.2675557,202.656485 98.5736466,203.13305 99.0425518,203.13305" id="Fill-86" fill="#9DC5F5"></path>
          <path d="M193.434848,206.741941 L199.79391,206.741941 C200.253511,206.741941 200.563324,206.291387 200.380041,205.887282 L199.788327,204.584856 C199.686917,204.360972 199.457117,204.216981 199.201266,204.216981 L192.937101,204.216981 C192.492385,204.216981 192.184434,204.638737 192.336084,205.038197 L192.83383,206.340623 C192.926867,206.581228 193.166902,206.741941 193.434848,206.741941" id="Fill-88" fill="#9DC5F5"></path>
          <path d="M184.424611,206.741941 L190.818096,206.741941 C191.25909,206.741941 191.567972,206.32483 191.420974,205.926299 L190.938114,204.624802 C190.846938,204.380481 190.606903,204.216981 190.336166,204.216981 L184.035717,204.216981 C183.611469,204.216981 183.304448,204.605293 183.421674,204.996393 L183.809638,206.29789 C183.888719,206.56172 184.138988,206.741941 184.424611,206.741941" id="Fill-90" fill="#9DC5F5"></path>
          <path d="M175.542578,206.741941 L181.963044,206.741941 C182.385431,206.741941 182.692452,206.358274 182.578948,205.969032 L182.20494,204.666606 C182.12865,204.400918 181.87652,204.216981 181.588106,204.216981 L175.261607,204.216981 C174.856897,204.216981 174.554528,204.572779 174.63547,204.951802 L174.916441,206.255157 C174.978775,206.538495 175.239278,206.741941 175.542578,206.741941" id="Fill-92" fill="#9DC5F5"></path>
          <path d="M166.541459,206.741941 L172.982393,206.741941 C173.384312,206.741941 173.687611,206.390788 173.610391,206.013623 L173.344306,204.711197 C173.285693,204.424143 173.022399,204.216981 172.717238,204.216981 L166.369341,204.216981 C165.985099,204.216981 165.687381,204.540265 165.73576,204.904424 L165.906948,206.207779 C165.947884,206.513413 166.219551,206.741941 166.541459,206.741941" id="Fill-94" fill="#9DC5F5"></path>
          <path d="M157.578484,206.741941 L164.031513,206.741941 C164.413894,206.741941 164.709751,206.423302 164.666024,206.061001 L164.508792,204.758575 C164.471577,204.450154 164.198979,204.216981 163.875211,204.216981 L157.51615,204.216981 C157.150515,204.216981 156.86024,204.50868 156.876987,204.857046 L156.939322,206.159472 C156.956068,206.485543 157.237039,206.741941 157.578484,206.741941" id="Fill-96" fill="#9DC5F5"></path>
          <path d="M148.593646,206.741941 L155.050397,206.741941 C155.412309,206.741941 155.702584,206.454887 155.689559,206.109308 L155.64118,204.806882 C155.629085,204.477095 155.347184,204.216981 155.002948,204.216981 L148.639234,204.216981 C148.294998,204.216981 148.012166,204.478024 148.000072,204.807811 L147.954484,206.110237 C147.942389,206.454887 148.231733,206.741941 148.593646,206.741941" id="Fill-98" fill="#9DC5F5"></path>
          <path d="M139.602574,206.741941 L146.055603,206.741941 C146.397979,206.741941 146.678019,206.485543 146.693836,206.158543 L146.75524,204.856117 C146.771986,204.507751 146.481712,204.216981 146.117008,204.216981 L139.757946,204.216981 C139.432317,204.216981 139.158789,204.450154 139.122505,204.758575 L138.967133,206.06193 C138.924337,206.424231 139.221124,206.741941 139.602574,206.741941" id="Fill-100" fill="#9DC5F5"></path>
          <path d="M130.740452,206.741941 L137.181386,206.741941 C137.504224,206.741941 137.775891,206.512484 137.815897,206.205921 L137.985224,204.903495 C138.032672,204.539336 137.734955,204.216981 137.349783,204.216981 L131.002815,204.216981 C130.696725,204.216981 130.433431,204.425072 130.375748,204.712126 L130.112454,206.015481 C130.036164,206.391717 130.338533,206.741941 130.740452,206.741941" id="Fill-102" fill="#9DC5F5"></path>
          <path d="M121.759335,206.741941 L128.180732,206.741941 C128.484962,206.741941 128.746395,206.537566 128.806869,206.253299 L129.085049,204.949944 C129.165991,204.57185 128.863621,204.216981 128.458912,204.216981 L122.131482,204.216981 C121.843068,204.216981 121.590939,204.400918 121.514649,204.667535 L121.142502,205.969961 C121.031788,206.359203 121.337879,206.741941 121.759335,206.741941" id="Fill-104" fill="#9DC5F5"></path>
          <path d="M112.640059,206.741941 L119.032614,206.741941 C119.319167,206.741941 119.569436,206.56172 119.647587,206.29789 L120.036481,204.996393 C120.152777,204.605293 119.846686,204.216981 119.422438,204.216981 L113.12292,204.216981 C112.852183,204.216981 112.611218,204.380481 112.520042,204.624802 L112.037181,205.926299 C111.889252,206.32483 112.198134,206.741941 112.640059,206.741941" id="Fill-106" fill="#9DC5F5"></path>
          <path d="M103.788822,206.741941 L110.147884,206.741941 C110.415829,206.741941 110.655864,206.581228 110.747971,206.339694 L111.244787,205.038197 C111.397367,204.638737 111.088485,204.216981 110.643769,204.216981 L104.379605,204.216981 C104.123754,204.216981 103.893953,204.360972 103.792543,204.585785 L103.20176,205.887282 C103.019408,206.291387 103.32829,206.741941 103.788822,206.741941" id="Fill-108" fill="#9DC5F5"></path>
          <path d="M199.592206,210.47773 L206.200606,210.47773 C206.672303,210.47773 206.983976,210.009526 206.782086,209.604492 L206.05733,208.157145 C205.951268,207.94348 205.725189,207.80785 205.47585,207.80785 L198.974442,207.80785 C198.517632,207.80785 198.205958,208.247256 198.377146,208.648574 L198.99584,210.09685 C199.094459,210.327236 199.330773,210.47773 199.592206,210.47773" id="Fill-110" fill="#9DC5F5"></path>
          <path d="M190.256712,210.47773 L196.903258,210.47773 C197.356347,210.47773 197.66802,210.042969 197.500554,209.64258 L196.900467,208.194304 C196.802778,207.961131 196.565534,207.80785 196.30131,207.80785 L189.760826,207.80785 C189.322623,207.80785 189.012811,208.212884 189.148645,208.607699 L189.644531,210.055975 C189.731055,210.306799 189.977602,210.47773 190.256712,210.47773" id="Fill-112" fill="#9DC5F5"></path>
          <path d="M181.053889,210.47773 L187.731137,210.47773 C188.166549,210.47773 188.475431,210.076412 188.345179,209.683455 L187.863249,208.235179 C187.779516,207.980639 187.531108,207.80785 187.250137,207.80785 L180.678951,207.80785 C180.260286,207.80785 179.953264,208.179441 180.053744,208.564966 L180.429613,210.013242 C180.500321,210.286361 180.758032,210.47773 181.053889,210.47773" id="Fill-114" fill="#9DC5F5"></path>
          <path d="M171.727513,210.47773 L178.42895,210.47773 C178.842964,210.47773 179.150915,210.109855 179.055088,209.726188 L178.695966,208.278841 C178.628049,208.002935 178.369407,207.80785 178.069828,207.80785 L171.474453,207.80785 C171.077186,207.80785 170.774817,208.146926 170.839943,208.519446 L171.093003,209.966793 C171.144173,210.262208 171.413049,210.47773 171.727513,210.47773" id="Fill-116" fill="#9DC5F5"></path>
          <path d="M162.440213,210.47773 L169.157466,210.47773 C169.552872,210.47773 169.854311,210.143299 169.792907,209.772637 L169.556594,208.32529 C169.508215,208.027088 169.238408,207.80785 168.921153,207.80785 L162.3081,207.80785 C161.931302,207.80785 161.635445,208.114412 161.668008,208.472068 L161.80012,209.918486 C161.828031,210.235267 162.107141,210.47773 162.440213,210.47773" id="Fill-118" fill="#9DC5F5"></path>
          <path d="M153.130118,210.47773 L159.855745,210.47773 C160.230683,210.47773 160.525609,210.175813 160.497698,209.820943 L160.382333,208.372668 C160.358143,208.054958 160.078103,207.80785 159.740379,207.80785 L153.120814,207.80785 C152.763553,207.80785 152.475139,208.083756 152.477,208.422833 L152.487234,209.871108 C152.489095,210.206469 152.776578,210.47773 153.130118,210.47773" id="Fill-120" fill="#9DC5F5"></path>
          <path d="M143.814627,210.47773 L150.540254,210.47773 C150.893794,210.47773 151.181277,210.20554 151.183138,209.870179 L151.190581,208.421904 C151.192442,208.083756 150.903097,207.80785 150.546767,207.80785 L143.926271,207.80785 C143.589478,207.80785 143.309438,208.054958 143.285248,208.373597 L143.172674,209.821872 C143.144763,210.175813 143.44062,210.47773 143.814627,210.47773" id="Fill-122" fill="#9DC5F5"></path>
          <path d="M134.630877,210.47773 L141.34906,210.47773 C141.683062,210.47773 141.962173,210.234338 141.990084,209.917557 L142.118474,208.470211 C142.149176,208.113483 141.85332,207.80785 141.476521,207.80785 L134.864399,207.80785 C134.546213,207.80785 134.276407,208.028017 134.228027,208.327148 L133.994505,209.774495 C133.935892,210.144228 134.237331,210.47773 134.630877,210.47773" id="Fill-124" fill="#9DC5F5"></path>
          <path d="M125.325434,210.47773 L132.026871,210.47773 C132.341335,210.47773 132.610211,210.261279 132.662312,209.964935 L132.91165,208.518517 C132.975846,208.145997 132.673476,207.80785 132.27714,207.80785 L125.680834,207.80785 C125.381256,207.80785 125.120753,208.003864 125.053767,208.280699 L124.698366,209.728046 C124.604399,210.110784 124.91142,210.47773 125.325434,210.47773" id="Fill-126" fill="#9DC5F5"></path>
          <path d="M115.875412,210.47773 L122.55266,210.47773 C122.848516,210.47773 123.106228,210.285432 123.177867,210.012313 L123.551874,208.564037 C123.650493,208.179441 123.343472,207.80785 122.926667,207.80785 L116.354551,207.80785 C116.07358,207.80785 115.824242,207.980639 115.740509,208.236108 L115.261369,209.683455 C115.131118,210.076412 115.44,210.47773 115.875412,210.47773" id="Fill-128" fill="#9DC5F5"></path>
          <path d="M106.70357,210.47773 L113.350115,210.47773 C113.628295,210.47773 113.875773,210.306799 113.962297,210.055046 L114.456322,208.607699 C114.592156,208.212884 114.282344,207.80785 113.845071,207.80785 L107.303657,207.80785 C107.038502,207.80785 106.801259,207.961131 106.7045,208.195233 L106.104413,209.643509 C105.938808,210.043898 106.250481,210.47773 106.70357,210.47773" id="Fill-130" fill="#9DC5F5"></path>
          <path d="M85.6866611,210.47773 L103.922795,210.47773 C104.185158,210.47773 104.420541,210.327236 104.51916,210.09685 L105.136924,208.648574 C105.309042,208.247256 104.997369,207.80785 104.541489,207.80785 L86.5630673,207.80785 C86.3323362,207.80785 86.1202124,207.924901 86.0048468,208.114412 L85.1284406,209.562688 C84.8828236,209.96958 85.192636,210.47773 85.6866611,210.47773" id="Fill-132" fill="#9DC5F5"></path>
          <path d="M94.7423002,206.741941 L101.060426,206.741941 C101.312556,206.741941 101.541426,206.600737 101.644697,206.37964 L102.250366,205.077214 C102.439231,204.67218 102.129418,204.216981 101.667026,204.216981 L95.4437973,204.216981 C95.2037625,204.216981 94.9851261,204.34518 94.8753427,204.549555 L94.174776,205.851052 C93.9552093,206.257944 94.2640913,206.741941 94.7423002,206.741941" id="Fill-134" fill="#9DC5F5"></path>
          <path d="M104.858279,199.764579 L110.720525,199.764579 C110.981958,199.764579 111.216411,199.602937 111.310378,199.357687 L111.724391,198.270783 C111.883484,197.853672 111.578324,197.405905 111.135469,197.405905 L105.346722,197.405905 C105.099244,197.405905 104.875026,197.551755 104.771755,197.779354 L104.283312,198.865329 C104.093517,199.287084 104.399608,199.764579 104.858279,199.764579" id="Fill-136" fill="#9DC5F5"></path>
          <path d="M91.6186843,200.763415 L97.1404155,200.763415 C97.6344406,200.763415 97.9693729,200.897188 97.8837791,201.059759 L96.9496901,202.844324 C96.8613052,203.014327 96.3737926,203.153674 95.8667424,203.153674 L94.9828932,203.153674 C94.7475103,203.153674 94.5325954,203.279086 94.422812,203.480674 L93.1789106,205.766887 C93.0802917,205.94525 92.5741718,206.092958 92.0540963,206.092958 L88.4954406,206.092958 C87.9744348,206.092958 87.635781,205.94525 87.7427733,205.766887 L90.5422491,201.059759 C90.6390074,200.897188 91.1237288,200.763415 91.6186843,200.763415" id="Fill-138" fill="#9DC5F5"></path>
          <path d="M92.1983033,199.764579 L102.185798,199.764579 C102.432346,199.764579 102.654704,199.621516 102.758905,199.396704 L103.261303,198.311658 C103.45668,197.888974 103.149659,197.405905 102.688197,197.405905 L92.817928,197.405905 C92.5918487,197.405905 92.3825161,197.527601 92.2699416,197.725474 L91.6503168,198.812377 C91.4084213,199.235991 91.7126515,199.764579 92.1983033,199.764579" id="Fill-140" fill="#9DC5F5"></path>
          <path d="M95.3310368,112.921554 L208.34836,112.921554 C211.903294,112.921554 214.785573,115.764224 214.785573,119.269255 L214.785573,191.357892 C214.785573,192.914858 213.520273,194.178267 211.960046,194.178267 L91.7174894,194.178267 C90.1581934,194.178267 88.893824,192.914858 88.893824,191.357892 L88.893824,119.269255 C88.893824,115.764224 91.7761025,112.921554 95.3310368,112.921554" id="Fill-142" fill="#404953"></path>
          <mask id="mask-5" fill="white">
            <use xlink:href="#path-4"></use>
          </mask>
          <g id="Clip-145"></g>
          <polygon id="Fill-144" fill="#3397F5" mask="url(#mask-5)" points="94.240646 191.124997 209.43782 191.124997 209.43782 119.242594 94.240646 119.242594"></polygon>
        </g>
        <g id="Group-165" transform="translate(138.000000, 111.000000)">
          <mask id="mask-7" fill="white">
            <use xlink:href="#path-6"></use>
          </mask>
          <g id="Clip-148"></g>
          <polygon id="Fill-147" fill="#14D997" mask="url(#mask-7)" points="83.9013953 22.1799621 109.104186 22.1799621 109.104186 18.1603302 83.9013953 18.1603302"></polygon>
          <polygon id="Fill-149" fill="#2F6BC3" mask="url(#mask-7)" points="58.5534884 22.1799621 77.9293023 22.1799621 77.9293023 18.1603302 58.5534884 18.1603302"></polygon>
          <polygon id="Fill-150" fill="#FFD840" mask="url(#mask-7)" points="34.4995349 22.1799621 53.8753488 22.1799621 53.8753488 18.1603302 34.4995349 18.1603302"></polygon>
          <polygon id="Fill-151" fill="#9DC5F5" mask="url(#mask-7)" points="10.4465116 22.1799621 29.8223256 22.1799621 29.8223256 18.1603302 10.4465116 18.1603302"></polygon>
          <polygon id="Fill-152" fill="#2F6BC3" mask="url(#mask-7)" points="19.8 62.3725502 42.5172093 62.3725502 42.5172093 58.3529184 19.8 58.3529184"></polygon>
          <polygon id="Fill-153" fill="#FFD840" mask="url(#mask-7)" points="46.5265116 62.3725502 65.9023256 62.3725502 65.9023256 58.3529184 46.5265116 58.3529184"></polygon>
          <polygon id="Fill-154" fill="#00DE91" mask="url(#mask-7)" points="70.5795349 62.3725502 89.9553488 62.3725502 89.9553488 58.3529184 70.5795349 58.3529184"></polygon>
          <polygon id="Fill-155" fill="#9DC5F5" mask="url(#mask-7)" points="94.6334884 62.3725502 114.009302 62.3725502 114.009302 58.3529184 94.6334884 58.3529184"></polygon>
          <polygon id="Fill-156" fill="#14D997" mask="url(#mask-7)" points="64.5655814 30.2182932 116.952558 30.2182932 116.952558 26.1986613 64.5655814 26.1986613"></polygon>
          <polygon id="Fill-157" fill="#2F6BC3" mask="url(#mask-7)" points="34.4995349 30.2182932 59.2204651 30.2182932 59.2204651 26.1986613 34.4995349 26.1986613"></polygon>
          <polygon id="Fill-158" fill="#9DC5F5" mask="url(#mask-7)" points="34.4995349 70.4099487 81.9376744 70.4099487 81.9376744 66.3903169 34.4995349 66.3903169"></polygon>
          <polygon id="Fill-159" fill="#2F6BC3" mask="url(#mask-7)" points="81.9376744 38.2566243 114.009302 38.2566243 114.009302 34.2369924 81.9376744 34.2369924"></polygon>
          <polygon id="Fill-160" fill="#FFD840" mask="url(#mask-7)" points="58.5534884 38.2566243 77.9293023 38.2566243 77.9293023 34.2369924 58.5534884 34.2369924"></polygon>
          <polygon id="Fill-161" fill="#00DE91" mask="url(#mask-7)" points="27.1497674 38.2566243 53.8753488 38.2566243 53.8753488 34.2369924 27.1497674 34.2369924"></polygon>
          <polygon id="Fill-162" fill="#FFD840" mask="url(#mask-7)" points="64.5655814 54.3332865 114.008372 54.3332865 114.008372 50.3136546 64.5655814 50.3136546"></polygon>
          <polygon id="Fill-163" fill="#9DC5F5" mask="url(#mask-7)" points="43.8539535 54.3332865 59.2213953 54.3332865 59.2213953 50.3136546 43.8539535 50.3136546"></polygon>
          <polygon id="Fill-164" fill="#9DC5F5" mask="url(#mask-7)" points="85.5255814 70.4099487 109.554419 70.4099487 109.554419 66.3903169 85.5255814 66.3903169"></polygon>
        </g>
        <g id="Group-178" transform="translate(237.000000, 1.000000)">
          <polygon id="Fill-166" fill="#00DE91" points="0.435092593 144.273043 0.661018519 169.886462 69.2249074 171.870875 67.5675 128.188707 18.9008333 128.62721 15.1619444 144.358514"></polygon>
          <path d="M48.5986111,149.527928 C48.675463,142.330715 42.9217593,136.433218 35.7486111,136.356108 C28.575463,136.278999 22.6967593,142.052005 22.6208333,149.249218 C22.5439815,156.446431 28.2967593,162.344857 35.4708333,162.421037 C42.6439815,162.498147 48.5217593,156.72607 48.5986111,149.527928" id="Fill-168" fill="#FFFFFF"></path>
          <polygon id="Fill-170" fill="#00DE91" points="42.7491667 149.465311 31.3834259 142.716821 31.2408333 155.968537"></polygon>
          <polygon id="Fill-172" fill="#FFD840" points="99.8690741 92.5485213 65.4246296 106.523954 93.9477778 128.316263"></polygon>
          <polygon id="Fill-174" fill="#BAD6F8" points="25.2352778 68.9044645 76.6889815 55.0340129 62.0213889 0.737651613 12.4862037 8.30276129"></polygon>
          <polygon id="Fill-176" fill="#2F6BC3" points="27.6034259 64.4815277 72.6025 52.3511535 59.7747222 4.86738581 16.4543519 11.4830245"></polygon>
        </g>
        <g id="Group-181" transform="translate(253.000000, 6.000000)">
          <mask id="mask-9" fill="white">
            <use xlink:href="#path-8"></use>
          </mask>
          <g id="Clip-180"></g>
          <path d="M67.3504419,25.5991385 C54.1002484,29.9957538 47.6921839,43.3471385 34.1772484,43.2566769 C20.6623129,43.1662154 19.3732161,33.1988308 -1.09423548,31.2566769 L9.60115161,63.8837538 L64.125829,48.2911385 L67.3504419,25.5991385 Z" id="Fill-179" fill="#3397F5" mask="url(#mask-9)"></path>
        </g>
        <g id="Group-199">
          <path d="M270.748946,27.0102 C271.355545,21.9649244 275.944118,18.3669955 280.996944,18.9745466 C286.048839,19.5811687 289.652153,24.1628847 289.045553,29.2063023 C288.438023,34.2515778 283.84945,37.8495068 278.796625,37.2438136 C273.744729,36.6362625 270.141416,32.0554756 270.748946,27.0102" id="Fill-182" fill="#FFD840"></path>
          <path d="M267.197361,26.5847284 C268.040274,19.5811687 274.4105,14.5869869 281.42361,15.4286403 C288.436721,16.2702937 293.439307,22.6300722 292.596394,29.6327028 C291.753481,36.6362625 285.384185,41.6304443 278.370144,40.7887909 C271.357034,39.9471375 266.354448,33.5873591 267.197361,26.5847284 Z" id="Stroke-184" stroke="#FFD740" stroke-width="2" stroke-linejoin="round" stroke-dasharray="3"></path>
          <mask id="mask-11" fill="white">
            <use xlink:href="#path-10"></use>
          </mask>
          <g id="Clip-187"></g>
          <polygon id="Fill-186" fill="#9DC5F5" mask="url(#mask-11)" points="226.227232 188.391946 250.259555 188.391946 250.259555 184.388054 226.227232 184.388054"></polygon>
          <polygon id="Fill-188" fill="#9DC5F5" mask="url(#mask-11)" points="261.166346 251.400851 246.326985 197.830448 278.754944 190.250922 294.538629 239.736613"></polygon>
          <path d="M273.74445,220.933277 L269.546632,214.246498 L269.49174,214.258575 L268.604169,222.129799 L273.74445,220.933277 Z M270.658421,208.838922 L282.701098,226.923322 L278.171138,227.976782 L275.641469,223.915294 L268.221788,225.641334 L267.696131,230.414419 L263.305726,231.436294 L266.184284,209.881234 L270.658421,208.838922 Z" id="Fill-189" fill-opacity="0.5" fill="#306BC4" mask="url(#mask-11)"></path>
          <path d="M246.908278,83.193352 C246.908278,75.3072639 240.179861,70.3316616 232.28104,70.3316616 C224.383151,70.3316616 217.654733,76.8326446 217.654733,84.7196616 C217.654733,92.6057497 225.256766,100.632113 233.154656,100.632113 C241.052545,100.632113 246.908278,91.0794401 246.908278,83.193352" id="Fill-190" fill="#6CC4FF" mask="url(#mask-11)"></path>
          <path d="M131.629604,129.281122 C123.005097,131.195744 130.672256,112.056026 130.672256,112.056026 C133.547091,118.754881 140.255972,127.367429 131.629604,129.281122 Z" id="Fill-191" fill="#ECB855" mask="url(#mask-11)"></path>
          <path d="M190.189644,238.118964 C194.115795,234.199609 211.244036,228.643695 212.966146,226.064854 C214.928291,223.12557 212.966146,223.12557 212.966146,223.12557 C212.966146,223.12557 214.928291,221.165428 213.947684,219.206215 L212.966146,217.246073 L212.966146,215.285931 C212.966146,212.346647 212.932372,209.822519 211.190703,208.822093 C210.96569,208.597203 211.034261,211.212311 208.494688,213.329111 C208.503651,213.926974 208.399446,214.606508 208.059388,215.285931 C207.07785,217.246073 205.115705,216.266931 205.115705,216.266931 C205.115705,216.266931 207.693955,214.333159 209.967773,211.241523 C210.518862,210.491689 211.60144,206.252269 211.984608,205.487079 C213.947684,201.566795 211.004001,202.546866 209.039995,205.487079 C208.404554,206.43928 207.283461,208.458877 206.096312,209.406434 C201.189554,213.326718 196.144171,216.223269 194.31972,218.226144 C192.190109,220.56438 190.682914,218.599593 193.338183,215.285931 C197.263403,210.386505 193.338183,207.446292 193.338183,209.406434 C193.338183,211.366576 191.375107,211.366576 188.431424,215.285931 C185.486811,219.206215 185.674444,224.501371 180.766755,228.421656" id="Fill-192" fill="#ECB855" mask="url(#mask-11)"></path>
          <path d="M191.375386,236.844521 L181.560939,229.005811 C181.560939,229.005811 170.764955,244.685089 155.062212,246.644302 C146.983831,247.653171 165.858197,283.882356 165.858197,283.882356 L191.375386,236.844521 Z" id="Fill-193" fill="#ECB855" mask="url(#mask-11)"></path>
          <path d="M54.3522446,158.956466 C75.4547304,144.407072 74.0811638,138.851632 75.0403727,126.410768 C75.9977209,113.969905 114.824748,138.850703 114.824748,138.850703 L99.9118872,162.797879 C99.9118872,162.797879 87.4979936,156.076728 76.9559994,155.118953" id="Fill-194" fill="#ECB855" mask="url(#mask-11)"></path>
          <path d="M127.796769,139.807735 C123.005376,154.162292 123.005376,154.162292 111.504173,152.24767 C102.00326,150.666551 81.9157411,143.252978 75.1482478,132.016998 C68.381685,120.781018 61.6690379,98.6596159 72.2110321,84.3050591 C82.7530263,69.9505023 108.309291,67.8092097 121.087889,82.3913659 C134.505649,97.7018403 133.08963,123.95288 127.796769,139.807735 Z" id="Fill-195" fill="#F2CD88" mask="url(#mask-11)"></path>
          <path d="M131.509121,204.506543 C154.081698,239.785384 179.046249,267.90181 166.840758,282.902935 C154.081698,298.582214 108.936545,230.964745 108.936545,230.964745 L131.509121,204.506543 Z" id="Fill-196" fill="#F2CD88" mask="url(#mask-11)"></path>
          <path d="M81.9452792,114.51995 C68.5000566,110.881601 71.2525675,136.936824 84.6703277,133.109437 L81.9452792,114.51995 Z" id="Fill-197" fill="#ECB855" mask="url(#mask-11)"></path>
          <path d="M84.6702346,133.109159 C91.3781843,131.195466 98.0870644,130.238619 97.1278555,101.529505 C96.1705074,72.8213207 116.296217,95.7884259 129.713977,92.9178861 C143.130807,90.0464173 152.714523,80.4770224 147.9222,75.6927895 C144.270872,71.6625059 139.297693,78.5633293 139.297693,78.5633293 C139.297693,78.5633293 147.9222,66.1224656 142.171598,62.2950793 C136.421927,58.4676929 136.421927,68.9939344 118.212774,62.2950793 C100.003621,55.5962241 59.7987201,51.4353349 55.9181573,78.5633293 C50.1684861,118.754602 73.1690315,141.721707 73.1690315,141.721707 C75.8552773,136.822703 77.1984002,134.373201 77.1984002,134.373201 C77.1984002,134.373201 63.735105,119.147559 75.0855886,113.036747 C85.3828961,107.491682 77.9613545,135.022852 84.6702346,133.109159 Z" id="Fill-198" fill="#2E5078" mask="url(#mask-11)"></path>
        </g>
        <g id="Group-202" transform="translate(53.000000, 10.000000)">
          <mask id="mask-13" fill="white">
            <use xlink:href="#path-12"></use>
          </mask>
          <g id="Clip-201"></g>
          <path d="M-51.9888481,204.9268 C-51.9888481,204.9268 -36.495896,171.046014 -4.86220297,153.013157 C15.7544245,141.258371 39.3186778,142.238014 56.9904717,156.9308 C74.6622656,171.623586 94.2988331,208.845371 94.2988331,208.845371 L85.4624708,219.619586 C79.1223296,227.350871 64.8439818,237.2513 64.8439818,237.2513 L56.0597405,225.3433 C56.0597405,225.3433 51.0998737,232.353086 49.1351001,267.616514 C47.1721879,302.878086 59.9353053,317.5718 59.9353053,317.5718 C59.9353053,317.5718 -31.3712899,317.5718 -51.9888481,204.9268" id="Fill-200" fill="#2F6BC3" mask="url(#mask-13)"></path>
        </g>
        <g id="Group-227" transform="translate(246.000000, 9.000000)">
          <path d="M146.502993,0.129351141 C105.643376,1.98338416 146.502993,60.3854243 114.929652,68.7285729 C104.72032,71.426191 103.017217,83.0009191 109.962423,88.0670644 C113.892375,90.9343264 116.415457,95.3682464 117.19829,100.163703 C118.566158,108.530027 120.825509,117.873426 133.502206,117.860448 C154.747349,117.840054 155.900705,97.6755905 155.900705,97.6755905 L152.049686,65.9002456 C152.049686,65.9002456 160.904151,-0.524195499 146.502993,0.129351141" id="Fill-203" fill="#306BC4"></path>
          <path d="M197.577514,26.0858134 C203.421368,49.5263529 186.140536,65.4645478 203.14928,84.4878536 C216.138924,99.0169834 209.8484,119.163833 189.452951,119.163833 C169.057501,119.163833 172.676363,58.909614 172.676363,58.909614 L197.577514,26.0858134 Z" id="Fill-205" fill="#4E97EE"></path>
          <path d="M29.8903886,126.780294 C23.1206929,122.547536 11.7106448,122.706056 7.49281801,122.96284 C3.27406255,123.217769 2.37422234,120.02327 7.28666267,119.588499 C10.9092392,119.268679 17.5897866,118.837616 20.8539128,118.632745 C21.2569372,118.607716 21.3237984,118.045017 20.9393465,117.918016 L2.06870384,111.315804 C-1.5315856,110.125515 -0.296510812,107.233223 4.71064954,108.338227 C8.62667238,109.202206 18.2203248,112.307712 22.6210912,113.595338 C22.9813988,113.701018 23.2089125,113.22175 22.9006082,113.01039 C18.5509162,110.02447 6.30603186,102.33116 4.53885342,101.304953 C2.34450626,100.029378 3.41614258,97.2650149 8.59045591,99.7095574 C12.7219204,101.660927 22.8773925,106.88003 26.427536,108.925956 C26.6253337,109.039052 26.8231314,108.77856 26.6578357,108.622821 C23.8190209,105.963211 16.7623793,99.4184742 14.4343098,97.887043 C11.4942746,95.9514325 11.9985194,93.005374 17.1264014,95.9134248 C22.2533547,98.8214756 37.0129627,110.152398 40.0820772,114.193263 C41.6133842,116.210451 44.0083149,126.309369 41.1825009,128.88184 C38.3474007,131.461727 29.8903886,126.780294 29.8903886,126.780294" id="Fill-207" fill="#B99653"></path>
          <path d="M135.035648,80.3261984 C148.866629,93.0430109 142.736758,117.594116 142.736758,117.594116 C142.736758,117.594116 150.748028,104.04577 162.410663,97.2173662 C176.850823,88.7620486 180.218956,99.337453 180.218956,99.337453 C180.218956,99.337453 168.391025,83.2342492 176.31872,58.2196357 C184.246414,33.2050221 135.035648,80.3261984 135.035648,80.3261984" id="Fill-209" fill="#B18A40"></path>
          <path d="M35.3660416,109.730977 C35.3660416,109.730977 35.4765483,107.892703 35.5211224,104.952207 C35.6176997,98.571552 35.4719051,96.7842641 37.1527212,95.3334833 C38.9003985,93.8243004 38.6896,101.488873 43.7357627,109.958096 C48.997367,118.787001 47.1401117,117.860912 48.6472744,121.7173 C48.8571442,122.25497 88.7435595,161.40195 98.6325155,171.018819 C105.457,177.65533 84.7031006,189.337593 84.7031006,189.337593 L77.1357138,183.062618 C77.1357138,183.062618 47.0305336,138.37486 40.3341996,133.702697 C33.6387941,129.03146 25.087062,124.285136 25.087062,124.285136 C25.087062,124.285136 32.7844567,128.462272 36.547256,129.163097 C40.6304318,129.922323 43.3995995,119.460015 35.3660416,109.730977" id="Fill-211" fill="#B18A40"></path>
          <path d="M53.3481733,129.187477 C56.5222227,134.735671 45.3099723,118.223653 40.9268497,109.393821 C38.0026012,103.502631 37.5559313,100.800378 36.8901053,98.4605881 C36.6384472,97.5725063 36.324571,97.4714615 36.0106949,98.3410029 C35.6234572,99.4144881 35.5779544,101.130396 35.5213081,104.951558 C35.476734,107.892054 35.3662273,109.731255 35.3662273,109.731255 C36.6300895,115.226609 31.7436508,126.667846 38.4585574,129.976368 C45.1716068,133.283963 49.1154885,121.787105 53.3481733,129.187477" id="Fill-213" fill="#B18A40"></path>
          <path d="M42.9237707,126.91879 C47.1397402,123.423011 46.9335849,119.605557 44.3538573,114.152845 C40.1388163,105.242363 38.6697273,96.5293346 37.3585051,96.608131 C35.5049643,96.721227 35.6173282,98.571552 35.5207509,104.952207 C35.4761768,107.892703 35.3656701,109.730977 35.3656701,109.730977 C34.8892841,117.189752 29.7214712,124.00425 34.637626,128.350103 C34.637626,128.350103 37.772673,131.189555 42.9237707,126.91879" id="Fill-215" fill="#B99653"></path>
          <path d="M128.353894,18.1174576 C117.995981,34.7333016 110.43138,66.1767746 117.08314,72.7873293 C130.460021,86.0798191 161.478971,80.8458838 173.276257,66.2694762 C183.87747,53.1707329 193.871361,31.279238 176.861688,15.6636449 C155.644404,-3.81760706 134.199605,8.74068561 128.353894,18.1174576" id="Fill-217" fill="#BD9C5D"></path>
          <path d="M182.719472,49.2612262 C195.720259,53.8963088 187.68763,73.3302829 166.495418,71.5670975 L182.719472,49.2612262 Z" id="Fill-219" fill="#BD9C5D"></path>
          <path d="M122.400369,34.4298891 C111.373844,41.3732427 110.675516,44.0717878 116.324358,48.9840483 C121.0325,53.0777532 122.400369,34.4298891 122.400369,34.4298891" id="Fill-221" fill="#B18A40"></path>
          <path d="M141.859855,155.868125 C141.859855,155.868125 100.415202,211.237894 94.4998438,204.072983 L70.0843654,180.185622 L87.9994502,159.576191 L97.2857268,167.91934 C97.2857268,167.91934 122.419963,134.598658 129.959491,117.824294 C135.359461,105.809233 141.859855,155.868125 141.859855,155.868125" id="Fill-223" fill="#6EB2F8"></path>
          <path d="M144.452583,105.665268 C133.457631,111.364565 126.726938,115.011448 127.328689,135.917525 C127.929511,156.823601 144.452583,105.665268 144.452583,105.665268" id="Fill-225" fill="#6EB2F8"></path>
        </g>
        <g id="Group-230" transform="translate(53.000000, 10.000000)">
          <mask id="mask-15" fill="white">
            <use xlink:href="#path-14"></use>
          </mask>
          <g id="Clip-229"></g>
          <path d="M318.636705,134.853271 C342.050179,109.642557 332.577197,95.7910571 357.143848,90.4341286 C381.711429,85.0781286 386.754131,126.931629 397.298385,149.152343 C407.842639,171.373057 428.699395,214.915629 428.699395,214.915629 L409.855811,231.266843 L382.225193,187.547843 C382.225193,187.547843 380.875633,219.538057 388.224686,236.827129 L313.035564,265.7447 C313.035564,265.7447 317.70225,224.271914 313.671253,197.499343 C309.640256,170.7277 297.580772,157.5262 318.636705,134.853271" id="Fill-228" fill="#9DC5F5" mask="url(#mask-15)"></path>
        </g>
        <g id="Group-233" transform="translate(53.000000, 10.000000)">
          <mask id="mask-17" fill="white">
            <use xlink:href="#path-16"></use>
          </mask>
          <g id="Clip-232"></g>
          <path d="M382.199039,188.315029 C371.251779,169.201314 362.896604,155.999814 361.035142,173.642671 C359.173679,191.285529 375.926842,233.999814 375.926842,233.999814 C375.926842,233.999814 380.086279,235.174457 382.44196,233.999814 C386.164885,232.142671 385.234154,225.642671 385.234154,225.642671 C385.234154,225.642671 381.853738,208.296957 382.199039,188.315029" id="Fill-231" fill="#6EB2F8" mask="url(#mask-17)"></path>
        </g>
        <g id="Group-238" transform="translate(377.000000, 4.000000)">
          <path d="M13.5620605,109.836329 C8.65215784,116.864868 4.66919568,127.494637 1.76379027,131.12563 C-1.14068541,134.755693 4.02861189,132.462141 12.7438984,121.571952 C21.4601146,110.680833 18.6765038,99.8734203 32.1808281,96.3921685 C45.6860822,92.9118469 19.3170876,94.9059168 19.3170876,94.9059168 L13.5620605,109.836329 Z" id="Fill-234" fill="#B18A40"></path>
          <path d="M13.484893,101.446634 C15.4624281,104.277766 16.8923524,107.442794 16.6534119,110.888703 C16.085347,119.075179 16.6636389,128.959962 25.8121795,128.349836 C39.7581254,127.419766 32.3202876,94.8673189 40.0221686,71.0175357 C48.985693,43.2605287 59.5158119,58.5918014 59.5158119,58.5918014 C59.5158119,58.5918014 80.7313146,31.1770601 55.97912,10.8382909 C22.2299308,-16.8945343 0.288309189,18.7968993 0.288309189,18.7968993 C20.6196389,1.99425594 5.71886054,37.572221 24.8108605,49.7477664 C31.3905578,53.944242 32.9125254,66.6685287 17.4446119,74.4057804 C8.14731459,79.0561301 6.28785514,91.1470392 13.484893,101.446634" id="Fill-236" fill="#4E97EE"></path>
        </g>
        <g id="Group-245" transform="translate(53.000000, 10.000000)">
          <g id="Group-241">
            <mask id="mask-19" fill="white">
              <use xlink:href="#path-18"></use>
            </mask>
            <g id="Clip-240"></g>
            <path d="M383.153411,208.312836 C370.509427,218.916193 344.331681,241.548264 332.597021,240.285407 C313.254565,238.202621 314.749319,237.420764 305.060407,245.240264 C300.435604,248.972193 338.874804,249.767979 354.942017,244.684979 C371.00923,239.601979 387.86105,227.455336 387.86105,227.455336 L383.153411,208.312836 Z" id="Fill-239" fill="#BD9C5D" mask="url(#mask-19)"></path>
          </g>
          <g id="Group-244">
            <mask id="mask-21" fill="white">
              <use xlink:href="#path-20"></use>
            </mask>
            <g id="Clip-243"></g>
            <path d="M388.141572,196.908864 C392.077635,203.069936 374.351858,213.602721 374.351858,213.602721 L386.482078,231.942936 L410.688536,213.602721 L388.141572,196.908864 Z" id="Fill-242" fill="#9DC5F5" mask="url(#mask-21)"></path>
          </g>
        </g>
      </g>
    </g>
  </g>
</svg>